Coordinates
version=1
nRows=38
nColumns=38
inDegrees=no

Units are S.I. units (second, meters, Newtons, ...)
If the header above contains a line with 'inDegrees', this indicates whether rotational values are in degrees (yes) or radians (no).

endheader
time	pelvis_tilt	pelvis_list	pelvis_rotation	pelvis_tx	pelvis_ty	pelvis_tz	hip_flexion_r	hip_adduction_r	hip_rotation_r	knee_angle_r	ankle_angle_r	subtalar_angle_r	mtp_angle_r	hip_flexion_l	hip_adduction_l	hip_rotation_l	knee_angle_l	ankle_angle_l	subtalar_angle_l	mtp_angle_l	lumbar_extension	lumbar_bending	lumbar_rotation	arm_flex_r	arm_add_r	arm_rot_r	elbow_flex_r	pro_sup_r	wrist_flex_r	wrist_dev_r	arm_flex_l	arm_add_l	arm_rot_l	elbow_flex_l	pro_sup_l	wrist_flex_l	wrist_dev_l
175	-0.54129	1.52792	2.18365	0.786699	0.263609	1.05528	0.00826066	-0.110682	0.0493182	0.793569	-0.395997	0	0	0.197281	0.0365928	-0.0778415	0.306726	-0.26927	0	0	-0.0360342	-0.108428	0.163551	0.243083	-0.4886	0.317155	1.48862	1.5708	0	0	0.358508	-0.291937	0.51441	1.40382	1.5708	0	0
175.01	-0.511878	1.53308	2.15372	0.784195	0.270588	1.0566	0.0216678	-0.109691	0.0541777	0.826141	-0.424771	0	0	0.181788	0.0343111	-0.0815764	0.298863	-0.268677	0	0	-0.0373659	-0.102934	0.163815	0.242512	-0.489338	0.316381	1.48341	1.5708	0	0	0.360161	-0.290175	0.520116	1.39742	1.5708	0	0
175.02	-0.486719	1.53828	2.12818	0.781699	0.277647	1.05788	0.03486	-0.108869	0.0579478	0.858261	-0.452232	0	0	0.165893	0.0320319	-0.0856749	0.291062	-0.268441	0	0	-0.0386683	-0.097717	0.163648	0.242163	-0.489823	0.316217	1.47794	1.5708	0	0	0.361648	-0.288699	0.525748	1.39113	1.5708	0	0
175.03	-0.472258	1.54387	2.11364	0.779163	0.284801	1.05916	0.0475527	-0.108558	0.0601607	0.889671	-0.477918	0	0	0.149504	0.0297593	-0.0907569	0.284043	-0.267956	0	0	-0.0405461	-0.0925882	0.162879	0.241981	-0.490256	0.316126	1.47262	1.5708	0	0	0.362777	-0.28729	0.530797	1.38519	1.5708	0	0
175.04	-0.434761	1.549	2.07626	0.776872	0.291663	1.0603	0.0613919	-0.106933	0.063613	0.921019	-0.502899	0	0	0.134695	0.0270702	-0.0946359	0.278226	-0.267293	0	0	-0.0426727	-0.0876939	0.161776	0.242503	-0.490124	0.315969	1.4676	1.5708	0	0	0.364613	-0.286445	0.535605	1.37982	1.5708	0	0
175.05	-0.344676	1.55269	1.98626	0.774784	0.298172	1.06118	0.0769851	-0.103586	0.070575	0.95185	-0.521718	0	0	0.122522	0.0244269	-0.0968695	0.273684	-0.26612	0	0	-0.0441292	-0.0830643	0.160383	0.243652	-0.489306	0.315508	1.46288	1.5708	0	0	0.366632	-0.286013	0.539659	1.37522	1.5708	0	0
175.06	-0.215124	1.5551	1.85684	0.772793	0.304441	1.06189	0.0932155	-0.0989832	0.0805149	0.980785	-0.530084	0	0	0.111926	0.0223602	-0.0980728	0.26966	-0.26444	0	0	-0.0452458	-0.0789404	0.158482	0.245587	-0.488184	0.315154	1.45839	1.5708	0	0	0.368408	-0.285829	0.542737	1.37156	1.5708	0	0
175.07	-0.080621	1.55794	1.72308	0.77083	0.310726	1.06263	0.109274	-0.095433	0.0866149	1.00983	-0.528306	0	0	0.100231	0.02087	-0.0993069	0.265236	-0.262752	0	0	-0.0477573	-0.0753074	0.155696	0.247669	-0.486692	0.314834	1.45474	1.5708	0	0	0.36985	-0.285944	0.544756	1.36906	1.5708	0	0
175.08	0.117816	1.56049	1.52559	0.768925	0.316954	1.06335	0.124721	-0.0909804	0.0937486	1.03604	-0.519018	0	0	0.0883322	0.0195614	-0.100494	0.260412	-0.261203	0	0	-0.0506418	-0.0718029	0.152515	0.250217	-0.485122	0.314737	1.45104	1.5708	0	0	0.371051	-0.286118	0.545914	1.36694	1.5708	0	0
175.09	0.468503	1.56251	1.17635	0.767024	0.323053	1.06407	0.140325	-0.0862667	0.0990271	1.06014	-0.507455	0	0	0.0762605	0.0180922	-0.101224	0.255375	-0.259891	0	0	-0.0541368	-0.0679115	0.148654	0.253571	-0.483782	0.315295	1.44729	1.5708	0	0	0.372231	-0.286123	0.546271	1.36488	1.5708	0	0
175.1	0.966766	1.56328	0.679775	0.765118	0.329006	1.06484	0.155084	-0.0810695	0.104603	1.08004	-0.493331	0	0	0.0638623	0.0169377	-0.101319	0.249807	-0.259081	0	0	-0.0584521	-0.063942	0.144562	0.257008	-0.482292	0.315517	1.44411	1.5708	0	0	0.3736	-0.285838	0.546093	1.36281	1.5708	0	0
175.11	1.44297	1.56235	0.205161	0.763185	0.334812	1.06563	0.169548	-0.0759714	0.110141	1.09619	-0.47576	0	0	0.051415	0.0163458	-0.0997873	0.243995	-0.258352	0	0	-0.0634208	-0.0601225	0.140812	0.260727	-0.481381	0.315565	1.44139	1.5708	0	0	0.375396	-0.284988	0.545688	1.36054	1.5708	0	0
175.12	1.73849	1.56	-0.0887068	0.761259	0.3405	1.06642	0.18462	-0.0710693	0.114092	1.10903	-0.458647	0	0	0.0396127	0.0157029	-0.0982592	0.238558	-0.257697	0	0	-0.0683619	-0.0562854	0.137374	0.264371	-0.480683	0.315418	1.43896	1.5708	0	0	0.377497	-0.283611	0.545291	1.35802	1.5708	0	0
175.13	1.89813	1.55677	-0.246766	0.759395	0.346161	1.06718	0.199639	-0.0657033	0.117261	1.11778	-0.439912	0	0	0.0279763	0.014532	-0.097133	0.232688	-0.257253	0	0	-0.0731377	-0.0521209	0.134213	0.268051	-0.480113	0.31557	1.4365	1.5708	0	0	0.379486	-0.28185	0.544727	1.35538	1.5708	0	0
175.14	1.983	1.55311	-0.330189	0.75757	0.351795	1.0679	0.214448	-0.0598991	0.119694	1.12223	-0.420976	0	0	0.0168723	0.0127576	-0.0962718	0.227666	-0.256519	0	0	-0.0778212	-0.0475066	0.131315	0.271711	-0.479733	0.315502	1.43424	1.5708	0	0	0.381364	-0.279807	0.543778	1.35273	1.5708	0	0
175.15	2.0146	1.54971	-0.360654	0.755819	0.357404	1.06852	0.229487	-0.0539831	0.121926	1.12244	-0.403574	0	0	0.00708549	0.0107709	-0.096093	0.224213	-0.255382	0	0	-0.0820103	-0.0430381	0.129047	0.275367	-0.480002	0.315687	1.43246	1.5708	0	0	0.383311	-0.277473	0.542553	1.35011	1.5708	0	0
175.16	2.00095	1.54708	-0.346487	0.754195	0.363004	1.06896	0.244754	-0.0475614	0.125997	1.11813	-0.387959	0	0	-0.00103921	0.0090712	-0.0971353	0.221624	-0.254394	0	0	-0.0850424	-0.0391269	0.127457	0.278741	-0.480163	0.315925	1.43116	1.5708	0	0	0.385087	-0.275154	0.540977	1.34776	1.5708	0	0
175.17	1.95945	1.54497	-0.304941	0.752691	0.368566	1.06925	0.260673	-0.0410915	0.130266	1.11051	-0.371944	0	0	-0.00783869	0.00755473	-0.0987896	0.219413	-0.253397	0	0	-0.0870702	-0.0355315	0.126289	0.282633	-0.480365	0.316798	1.42955	1.5708	0	0	0.386592	-0.272802	0.538786	1.34561	1.5708	0	0
175.18	1.89709	1.54347	-0.242948	0.751276	0.37409	1.06939	0.277176	-0.0348578	0.134437	1.09983	-0.356603	0	0	-0.01322	0.00644738	-0.100973	0.218037	-0.252293	0	0	-0.0881295	-0.0324453	0.125374	0.287004	-0.480648	0.318254	1.42771	1.5708	0	0	0.387749	-0.270643	0.536059	1.34387	1.5708	0	0
175.19	1.82382	1.54225	-0.170337	0.749952	0.379632	1.06941	0.293469	-0.0285845	0.138553	1.08589	-0.342155	0	0	-0.017733	0.0055337	-0.103237	0.217395	-0.250851	0	0	-0.0886547	-0.0295258	0.12485	0.291078	-0.481041	0.319741	1.42654	1.5708	0	0	0.388605	-0.268489	0.53302	1.34242	1.5708	0	0
175.2	1.74219	1.54123	-0.0895178	0.748722	0.385188	1.06933	0.309542	-0.0226963	0.142926	1.06898	-0.328812	0	0	-0.0214875	0.00484531	-0.105301	0.217426	-0.248913	0	0	-0.0886469	-0.0270178	0.124697	0.294935	-0.481473	0.321406	1.42571	1.5708	0	0	0.389356	-0.26638	0.529854	1.3411	1.5708	0	0
175.21	1.66134	1.54032	-0.00979235	0.747603	0.39083	1.06919	0.324898	-0.017217	0.147453	1.04916	-0.317151	0	0	-0.0251324	0.00446808	-0.107208	0.217512	-0.246932	0	0	-0.0882785	-0.0249439	0.125104	0.298427	-0.4819	0.323122	1.42515	1.5708	0	0	0.389985	-0.264532	0.526948	1.33996	1.5708	0	0
175.22	1.57793	1.53917	0.0722438	0.746628	0.396609	1.06899	0.339251	-0.0114362	0.152605	1.02666	-0.304422	0	0	-0.0285924	0.00385697	-0.109887	0.217775	-0.244533	0	0	-0.087224	-0.0230122	0.125737	0.301744	-0.482272	0.325235	1.42441	1.5708	0	0	0.389912	-0.263129	0.523883	1.33921	1.5708	0	0
175.23	1.49476	1.53806	0.153952	0.745714	0.402319	1.06872	0.353148	-0.00598656	0.158378	1.00234	-0.292901	0	0	-0.0316773	0.00362141	-0.11208	0.218263	-0.2423	0	0	-0.0864612	-0.0213371	0.126681	0.304693	-0.482888	0.326893	1.42479	1.5708	0	0	0.390082	-0.261977	0.520883	1.339	1.5708	0	0
175.24	1.39963	1.53685	0.247626	0.744885	0.407945	1.0683	0.366957	-0.000903898	0.165246	0.976081	-0.281311	0	0	-0.033812	0.00366855	-0.1138	0.219172	-0.239888	0	0	-0.0854935	-0.020043	0.127648	0.307556	-0.483505	0.328369	1.42606	1.5708	0	0	0.390366	-0.261234	0.517647	1.33946	1.5708	0	0
175.25	1.29796	1.535	0.347692	0.74407	0.413672	1.06778	0.37975	0.00420848	0.172736	0.946437	-0.268497	0	0	-0.0352677	0.0035682	-0.116286	0.220358	-0.236954	0	0	-0.0837649	-0.0185556	0.128743	0.310385	-0.484581	0.330236	1.4276	1.5708	0	0	0.389896	-0.260398	0.513684	1.34046	1.5708	0	0
175.26	1.2076	1.53317	0.436641	0.743114	0.419319	1.06719	0.392273	0.00805685	0.179285	0.917227	-0.257594	0	0	-0.0367378	0.00413268	-0.117845	0.221655	-0.23396	0	0	-0.0824177	-0.016974	0.129572	0.313535	-0.485936	0.332183	1.42949	1.5708	0	0	0.389685	-0.259434	0.50982	1.34146	1.5708	0	0
175.27	1.13214	1.53107	0.510501	0.742244	0.425212	1.06659	0.403564	0.0113925	0.185613	0.887192	-0.247506	0	0	-0.0391268	0.00446483	-0.120608	0.22221	-0.230804	0	0	-0.0809135	-0.0152679	0.130899	0.31576	-0.487445	0.333878	1.43206	1.5708	0	0	0.388983	-0.258647	0.506091	1.34287	1.5708	0	0
175.28	1.06678	1.52862	0.57419	0.741567	0.431326	1.06596	0.413768	0.0147197	0.191842	0.856017	-0.237499	0	0	-0.0419333	0.00424007	-0.124242	0.222531	-0.227627	0	0	-0.078992	-0.0137372	0.132514	0.317267	-0.48865	0.335215	1.4347	1.5708	0	0	0.387781	-0.258439	0.502485	1.34486	1.5708	0	0
175.29	0.994695	1.52603	0.645076	0.740778	0.437272	1.06517	0.423472	0.0174787	0.196537	0.823304	-0.227117	0	0	-0.0440498	0.00477349	-0.126125	0.222764	-0.224407	0	0	-0.077022	-0.0123587	0.133565	0.318962	-0.490174	0.336539	1.43811	1.5708	0	0	0.386704	-0.258253	0.498622	1.3473	1.5708	0	0
175.3	0.91705	1.5232	0.722045	0.739901	0.443059	1.06422	0.432847	0.0199085	0.199809	0.789586	-0.216472	0	0	-0.0454335	0.00600252	-0.126171	0.222963	-0.221005	0	0	-0.0748654	-0.0113387	0.13387	0.321207	-0.491887	0.338166	1.44181	1.5708	0	0	0.385754	-0.258246	0.494552	1.35017	1.5708	0	0
175.31	0.845953	1.52017	0.792572	0.739123	0.449053	1.06322	0.441426	0.0214476	0.20264	0.754303	-0.2078	0	0	-0.0470889	0.00706579	-0.126885	0.223086	-0.217581	0	0	-0.0723108	-0.0105326	0.134127	0.322611	-0.493182	0.339406	1.44597	1.5708	0	0	0.384191	-0.258662	0.490439	1.35361	1.5708	0	0
175.32	0.781946	1.51703	0.856233	0.738449	0.455232	1.06216	0.448817	0.0225256	0.204438	0.717155	-0.20229	0	0	-0.0490219	0.00796738	-0.127974	0.223234	-0.213999	0	0	-0.0694696	-0.0100738	0.13424	0.323556	-0.494213	0.340624	1.45028	1.5708	0	0	0.382208	-0.259485	0.486302	1.35755	1.5708	0	0
175.33	0.727443	1.51399	0.910902	0.737745	0.461548	1.06112	0.454479	0.0230591	0.203848	0.67759	-0.20121	0	0	-0.0517003	0.00898721	-0.128324	0.22285	-0.209996	0	0	-0.0667102	-0.00985964	0.133721	0.324892	-0.495338	0.342882	1.4543	1.5708	0	0	0.379763	-0.26045	0.481845	1.36194	1.5708	0	0
175.34	0.680412	1.51122	0.958537	0.737003	0.46798	1.06007	0.458762	0.0232646	0.200317	0.637325	-0.203019	0	0	-0.0554206	0.010248	-0.127596	0.221233	-0.206926	0	0	-0.0640691	-0.00975774	0.132723	0.326153	-0.496442	0.345112	1.45834	1.5708	0	0	0.377246	-0.261661	0.47754	1.36652	1.5708	0	0
175.35	0.639744	1.50872	1.00014	0.736291	0.47454	1.05903	0.46148	0.0232444	0.194347	0.596146	-0.206927	0	0	-0.0594483	0.0112983	-0.127508	0.2201	-0.204168	0	0	-0.0617888	-0.00976561	0.131682	0.326598	-0.497569	0.34638	1.46327	1.5708	0	0	0.374815	-0.262868	0.47333	1.37135	1.5708	0	0
175.36	0.602055	1.50647	1.03903	0.735611	0.48123	1.05799	0.462905	0.0225048	0.186529	0.55438	-0.211726	0	0	-0.063563	0.0122513	-0.128244	0.219757	-0.201268	0	0	-0.059438	-0.0101573	0.13058	0.326662	-0.498648	0.347687	1.46824	1.5708	0	0	0.372513	-0.264181	0.46947	1.37613	1.5708	0	0
175.37	0.57604	1.50499	1.06664	0.734898	0.488062	1.05704	0.461418	0.0212283	0.176837	0.510409	-0.218781	0	0	-0.0688529	0.0129686	-0.129313	0.219698	-0.198059	0	0	-0.0579344	-0.010447	0.128945	0.327138	-0.49992	0.349725	1.47276	1.5708	0	0	0.370051	-0.265436	0.465396	1.38091	1.5708	0	0
